# xmcd CD database file
#
# Track frame offsets:
#	150
#	18905
#	42417
#
# Disc length: 816 seconds
#
# Revision: 0
# Processed by: cddbd v1.5PL3 Copyright (c) Steve Scherf et al.
# Submitted via: CDex 1.50
#
DISCID=1b032e03
DTITLE=渡辺美里 - 一緒だね
DYEAR=1997
DGENRE=JPop
TTITLE0=一緒だね
TTITLE1=グッときれいになりましょう[すっぴんヴァージョン]
TTITLE2=一緒だね[Instrumental Version]
EXTD=YEAR: 1997
EXTT0=
EXTT1=
EXTT2=
PLAYORDER=
